<?xml version="1.0" standalone="no"?>
<!DOCTYPE svg PUBLIC "-//W3C//DTD SVG 20010904//EN"
 "http://www.w3.org/TR/2001/REC-SVG-20010904/DTD/svg10.dtd">
<svg version="1.0" xmlns="http://www.w3.org/2000/svg"
 width="512.000000pt" height="512.000000pt" viewBox="0 0 512.000000 512.000000"
 preserveAspectRatio="xMidYMid meet">

<g transform="translate(0.000000,512.000000) scale(0.100000,-0.100000)"
fill="#000000" stroke="none">
<path d="M1120 4080 l0 -400 240 0 239 0 3 78 3 77 78 3 77 3 0 239 0 239 -77
3 -78 3 -3 78 -3 77 -239 0 -240 0 0 -400z m475 0 l0 -235 -155 0 -155 0 -3
225 c-1 123 0 230 3 238 3 10 39 12 157 10 l153 -3 0 -235z"/>
<path d="M4638 4243 l-3 -78 -77 -3 -78 -3 0 -159 0 -160 -80 0 -80 0 0 160 0
160 -80 0 -79 0 -3 -77 -3 -78 -477 -3 -477 -2 -3 -78 -3 -77 -157 -3 -157 -3
-3 -77 -3 -77 -77 -3 -77 -3 -3 -77 -3 -77 -77 -3 -77 -3 -3 -157 -3 -157 -77
-3 -78 -3 -2 -317 -3 -317 -77 -3 -78 -3 0 -79 0 -80 -80 0 -80 0 0 -160 0
-160 80 0 80 0 0 -80 0 -79 78 -3 77 -3 3 -77 3 -77 77 -3 77 -3 3 -77 3 -77
157 -3 157 -3 3 -77 3 -77 77 -3 77 -3 3 -238 2 -237 -80 0 -80 0 0 -240 0
-239 78 -3 77 -3 3 -77 3 -77 77 -3 77 -3 3 -77 3 -77 77 -3 77 -3 3 -77 3
-78 159 0 159 0 3 78 3 77 75 0 75 0 3 -77 3 -78 159 0 159 0 3 78 3 77 77 3
77 3 3 77 3 77 77 3 77 3 3 77 3 77 77 3 77 3 3 77 3 77 238 3 237 2 0 720 0
719 -77 3 -78 3 -3 557 -2 557 -78 3 -77 3 0 75 0 75 78 3 77 3 0 79 0 80
-160 0 -160 0 0 80 0 80 160 0 159 0 3 78 3 77 78 3 77 3 0 79 0 79 -77 3 -78
3 -3 77 -3 77 -77 3 -77 3 -3 78 -3 77 -79 0 -79 0 -3 -77z m2 -483 l0 -80
-80 0 -80 0 0 80 0 80 80 0 80 0 0 -80z m-1280 -800 l0 -80 240 0 240 0 0 80
0 80 80 0 80 0 0 -80 0 -80 80 0 80 0 0 -240 0 -240 80 0 80 0 0 160 0 160 80
0 80 0 0 -160 0 -160 -80 0 -80 0 0 -80 0 -80 -80 0 -80 0 0 -80 0 -80 -637 2
-638 3 -3 398 -2 397 160 0 160 0 0 80 0 80 80 0 80 0 0 -80z m-800 -640 l0
-79 78 -3 77 -3 0 -75 0 -75 -77 -3 -77 -3 -3 -77 -3 -77 -75 0 -75 0 -3 78
-3 77 -79 0 -80 0 0 160 0 160 160 0 160 0 0 -80z m955 -480 l0 -75 -77 -3
-78 -3 0 -79 0 -80 -80 0 -80 0 0 160 0 161 158 -3 157 -3 0 -75z m485 -80 l0
-160 -80 0 -80 0 0 80 0 79 -77 3 -78 3 -3 64 c-2 35 -1 70 2 77 4 11 39 14
161 14 l155 0 0 -160z m-320 -85 l5 -80 73 -3 72 -3 1 -57 c1 -31 3 -173 4
-314 l3 -257 -82 -3 -81 -3 -3 -72 -3 -73 -69 0 -69 0 -3 73 -3 72 -81 3 -82
3 3 257 c1 141 3 283 4 314 l1 57 73 3 72 3 3 70 c1 39 5 76 7 83 3 9 25 12
77 10 l73 -3 5 -80z m798 -317 l3 -78 79 0 80 0 0 -160 0 -160 -160 0 -160 0
0 80 0 79 -77 3 -78 3 0 75 0 75 78 3 77 3 0 73 c0 40 3 76 7 80 4 4 39 5 78
4 l70 -3 3 -77z m-1276 -475 l3 -78 78 -3 77 -3 0 -79 0 -80 400 0 400 0 0 80
0 80 160 0 160 0 0 -80 0 -80 -160 0 -160 0 0 -80 0 -80 -400 0 -400 0 0 80 0
80 -160 0 -160 0 0 160 0 160 80 0 79 0 3 -77z m478 -643 l0 -80 -160 0 -160
0 0 80 0 80 160 0 160 0 0 -80z m480 0 l0 -80 -160 0 -160 0 0 80 0 80 160 0
160 0 0 -80z"/>
<path d="M3050 2560 l0 -150 70 0 70 0 0 150 0 150 -70 0 -70 0 0 -150z"/>
<path d="M3690 2560 l0 -150 70 0 70 0 0 150 0 150 -70 0 -70 0 0 -150z"/>
<path d="M3520 1360 l0 -80 80 0 80 0 0 80 0 80 -80 0 -80 0 0 -80z"/>
<path d="M478 3923 l-3 -78 -77 -3 -78 -3 0 -319 0 -320 80 0 79 0 3 78 3 77
155 0 155 0 3 -77 3 -78 79 0 80 0 0 320 0 319 -77 3 -78 3 -3 78 -3 77 -159
0 -159 0 -3 -77z m317 -243 l0 -155 -155 0 -155 0 -3 145 c-1 79 0 150 2 157
4 11 39 13 158 11 l153 -3 0 -155z"/>
<path d="M1278 3443 l-3 -78 -77 -3 -78 -3 0 -159 0 -159 78 -3 77 -3 3 -77 3
-78 159 0 159 0 3 78 3 77 78 3 77 3 0 159 0 159 -77 3 -78 3 -3 78 -3 77
-159 0 -159 0 -3 -77z m317 -243 l0 -155 -155 0 -155 0 -3 145 c-1 79 0 150 2
157 4 11 39 13 158 11 l153 -3 0 -155z"/>
<path d="M320 2560 l0 -320 80 0 79 0 3 158 3 157 77 3 77 3 3 77 3 77 78 3
77 3 0 79 0 80 -80 0 -79 0 -3 -77 -3 -78 -75 0 -75 0 -3 78 -3 77 -79 0 -80
0 0 -320z"/>
<path d="M1278 2643 l-3 -78 -77 -3 -78 -3 0 -79 0 -79 78 -3 77 -3 3 -237 2
-238 160 0 160 0 0 80 0 79 -77 3 -78 3 0 155 0 155 78 3 77 3 0 79 0 79 -77
3 -78 3 -3 78 -3 77 -79 0 -79 0 -3 -77z"/>
<path d="M478 2003 l-3 -78 -77 -3 -78 -3 0 -79 0 -79 78 -3 77 -3 3 -237 2
-238 160 0 160 0 0 80 0 79 -77 3 -78 3 0 155 0 155 78 3 77 3 0 79 0 79 -77
3 -78 3 -3 78 -3 77 -79 0 -79 0 -3 -77z"/>
<path d="M480 960 l0 -160 80 0 80 0 0 160 0 160 -80 0 -80 0 0 -160z"/>
<path d="M480 560 l0 -80 80 0 80 0 0 80 0 80 -80 0 -80 0 0 -80z"/>
</g>
</svg>
